# xmcd
# 
# Track frame offsets:
#     150
#     25557
#     50457
#     72522
#     96375
#     119917
#     143017
#     165380
#     187132
#     207452
#     229112
# 
# Disc length: 3110
# 
# Revision: 1
# Processed by: cddbd v1.5.2PL0 Copyright (c) Steve Scherf et al.
# Submitted via: BonkEnc v1.0.6
# 
DISCID=a20c240b
DTITLE=川崎真理子 - For My Boy
DYEAR=1994
DGENRE=JPop
TTITLE0=恋がはじまった
TTITLE1=ガールズファイト
TTITLE2=幸せの瞬間
TTITLE3=風がふいた
TTITLE4=近頃の女のコ
TTITLE5=また一緒に暮らそう
TTITLE6=ハンドクリーム
TTITLE7=小さな同窓会
TTITLE8=Shampoo
TTITLE9=LET'S GO, BOOTS!
TTITLE10=幸せの瞬間(REPRISE)
EXTD=YEAR: 1994
EXTT0=
EXTT1=
EXTT2=
EXTT3=
EXTT4=
EXTT5=
EXTT6=
EXTT7=
EXTT8=
EXTT9=
EXTT10=
PLAYORDER=
